<svg xmlns="http://www.w3.org/2000/svg" viewBox="0 0 900 300"><defs><linearGradient id="g" x1="0" y1="0" x2="1" y2="1"><stop offset="0" stop-color="#2a0f2e"/><stop offset="1" stop-color="#7a2c63"/></linearGradient></defs><rect width="900" height="300" fill="url(#g)"/><g fill="none" stroke="#f6c1e3" stroke-width="2" font-family="Georgia,serif"><rect x="40" y="75" width="150" height="150" rx="12" stroke="#f5c26b"/><path d="M70 150H160"/><text x="115" y="135" font-size="40" fill="#f6c1e3" stroke="none" opacity="1" text-anchor="middle">1</text><text x="115" y="192" font-size="40" fill="#f6c1e3" stroke="none" opacity="1" text-anchor="middle">6</text><rect x="210" y="75" width="150" height="150" rx="12" stroke="#f6c1e3"/><path d="M240 150H330"/><text x="285" y="135" font-size="40" fill="#f6c1e3" stroke="none" opacity="1" text-anchor="middle">−1</text><text x="285" y="192" font-size="40" fill="#f6c1e3" stroke="none" opacity="1" text-anchor="middle">30</text><rect x="380" y="75" width="150" height="150" rx="12" stroke="#f6c1e3"/><path d="M410 150H500"/><text x="455" y="135" font-size="40" fill="#f6c1e3" stroke="none" opacity="1" text-anchor="middle">1</text><text x="455" y="192" font-size="40" fill="#f6c1e3" stroke="none" opacity="1" text-anchor="middle">42</text><rect x="550" y="75" width="150" height="150" rx="12" stroke="#f6c1e3"/><path d="M580 150H670"/><text x="625" y="135" font-size="40" fill="#f6c1e3" stroke="none" opacity="1" text-anchor="middle">−1</text><text x="625" y="192" font-size="40" fill="#f6c1e3" stroke="none" opacity="1" text-anchor="middle">30</text><rect x="720" y="75" width="150" height="150" rx="12" stroke="#f6c1e3"/><path d="M750 150H840"/><text x="795" y="135" font-size="40" fill="#f6c1e3" stroke="none" opacity="1" text-anchor="middle">5</text><text x="795" y="192" font-size="40" fill="#f6c1e3" stroke="none" opacity="1" text-anchor="middle">66</text></g></svg>