<svg xmlns="http://www.w3.org/2000/svg" viewBox="0 0 900 300"><defs><linearGradient id="g" x1="0" y1="0" x2="1" y2="1"><stop offset="0" stop-color="#2a0f2e"/><stop offset="1" stop-color="#7a2c63"/></linearGradient></defs><rect width="900" height="300" fill="url(#g)"/><g fill="none" stroke="#f6c1e3" stroke-width="2" font-family="Georgia,serif"><circle cx="200" cy="150" r="80" stroke="#f6c1e3" stroke-width="14" pathLength="50" stroke-dasharray="1 1"/><circle cx="200" cy="150" r="72" stroke="#f6c1e3"/><circle cx="200" cy="150" r="24" stroke="#f6c1e3"/><path d="M200 150L272 150" stroke="#f6c1e3"/><path d="M200 150L236 212" stroke="#f6c1e3"/><path d="M200 150L164 212" stroke="#f6c1e3"/><path d="M200 150L128 150" stroke="#f6c1e3"/><path d="M200 150L164 88" stroke="#f6c1e3"/><path d="M200 150L236 88" stroke="#f6c1e3"/><circle cx="332" cy="92" r="50" stroke="#f5c26b" stroke-width="14" pathLength="32" stroke-dasharray="1 1"/><circle cx="332" cy="92" r="42" stroke="#f5c26b"/><circle cx="332" cy="92" r="15" stroke="#f5c26b"/><path d="M332 92L374 92" stroke="#f5c26b"/><path d="M332 92L353 128" stroke="#f5c26b"/><path d="M332 92L311 128" stroke="#f5c26b"/><path d="M332 92L290 92" stroke="#f5c26b"/><path d="M332 92L311 56" stroke="#f5c26b"/><path d="M332 92L353 56" stroke="#f5c26b"/><circle cx="700" cy="170" r="100" stroke="#f6c1e3" stroke-width="14" pathLength="62" stroke-dasharray="1 1"/><circle cx="700" cy="170" r="92" stroke="#f6c1e3"/><circle cx="700" cy="170" r="30" stroke="#f6c1e3"/><path d="M700 170L792 170" stroke="#f6c1e3"/><path d="M700 170L746 250" stroke="#f6c1e3"/><path d="M700 170L654 250" stroke="#f6c1e3"/><path d="M700 170L608 170" stroke="#f6c1e3"/><path d="M700 170L654 90" stroke="#f6c1e3"/><path d="M700 170L746 90" stroke="#f6c1e3"/><circle cx="590" cy="48" r="40" stroke="#f5c26b" stroke-width="14" pathLength="26" stroke-dasharray="1 1"/><circle cx="590" cy="48" r="32" stroke="#f5c26b"/><circle cx="590" cy="48" r="12" stroke="#f5c26b"/><path d="M590 48L622 48" stroke="#f5c26b"/><path d="M590 48L606 76" stroke="#f5c26b"/><path d="M590 48L574 76" stroke="#f5c26b"/><path d="M590 48L558 48" stroke="#f5c26b"/><path d="M590 48L574 20" stroke="#f5c26b"/><path d="M590 48L606 20" stroke="#f5c26b"/><circle cx="815" cy="52" r="45" stroke="#f6c1e3" stroke-width="14" pathLength="28" stroke-dasharray="1 1"/><circle cx="815" cy="52" r="37" stroke="#f6c1e3"/><circle cx="815" cy="52" r="14" stroke="#f6c1e3"/><path d="M815 52L852 52" stroke="#f6c1e3"/><path d="M815 52L834 84" stroke="#f6c1e3"/><path d="M815 52L796 84" stroke="#f6c1e3"/><path d="M815 52L778 52" stroke="#f6c1e3"/><path d="M815 52L796 20" stroke="#f6c1e3"/><path d="M815 52L834 20" stroke="#f6c1e3"/></g></svg>