<svg xmlns="http://www.w3.org/2000/svg" viewBox="0 0 900 300"><defs><linearGradient id="g" x1="0" y1="0" x2="1" y2="1"><stop offset="0" stop-color="#08202e"/><stop offset="1" stop-color="#0b5a6b"/></linearGradient></defs><rect width="900" height="300" fill="url(#g)"/><g fill="none" stroke="#8fe3ee" stroke-width="2" font-family="Georgia,serif"><circle cx="210" cy="150" r="120"/><circle cx="210" cy="150" r="78" opacity=".6"/><text x="210" y="54" font-size="13" fill="#8fe3ee" stroke="none" opacity="1" text-anchor="middle" transform="rotate(0.0 210 150)">A</text><text x="210" y="54" font-size="13" fill="#8fe3ee" stroke="none" opacity="1" text-anchor="middle" transform="rotate(13.8 210 150)">B</text><text x="210" y="54" font-size="13" fill="#8fe3ee" stroke="none" opacity="1" text-anchor="middle" transform="rotate(27.7 210 150)">C</text><text x="210" y="54" font-size="13" fill="#8fe3ee" stroke="none" opacity="1" text-anchor="middle" transform="rotate(41.5 210 150)">D</text><text x="210" y="54" font-size="13" fill="#8fe3ee" stroke="none" opacity="1" text-anchor="middle" transform="rotate(55.4 210 150)">E</text><text x="210" y="54" font-size="13" fill="#8fe3ee" stroke="none" opacity="1" text-anchor="middle" transform="rotate(69.2 210 150)">F</text><text x="210" y="54" font-size="13" fill="#8fe3ee" stroke="none" opacity="1" text-anchor="middle" transform="rotate(83.1 210 150)">G</text><text x="210" y="54" font-size="13" fill="#8fe3ee" stroke="none" opacity="1" text-anchor="middle" transform="rotate(96.9 210 150)">H</text><text x="210" y="54" font-size="13" fill="#8fe3ee" stroke="none" opacity="1" text-anchor="middle" transform="rotate(110.8 210 150)">I</text><text x="210" y="54" font-size="13" fill="#8fe3ee" stroke="none" opacity="1" text-anchor="middle" transform="rotate(124.6 210 150)">J</text><text x="210" y="54" font-size="13" fill="#8fe3ee" stroke="none" opacity="1" text-anchor="middle" transform="rotate(138.5 210 150)">K</text><text x="210" y="54" font-size="13" fill="#8fe3ee" stroke="none" opacity="1" text-anchor="middle" transform="rotate(152.3 210 150)">L</text><text x="210" y="54" font-size="13" fill="#8fe3ee" stroke="none" opacity="1" text-anchor="middle" transform="rotate(166.2 210 150)">M</text><text x="210" y="54" font-size="13" fill="#8fe3ee" stroke="none" opacity="1" text-anchor="middle" transform="rotate(180.0 210 150)">N</text><text x="210" y="54" font-size="13" fill="#8fe3ee" stroke="none" opacity="1" text-anchor="middle" transform="rotate(193.8 210 150)">O</text><text x="210" y="54" font-size="13" fill="#8fe3ee" stroke="none" opacity="1" text-anchor="middle" transform="rotate(207.7 210 150)">P</text><text x="210" y="54" font-size="13" fill="#8fe3ee" stroke="none" opacity="1" text-anchor="middle" transform="rotate(221.5 210 150)">Q</text><text x="210" y="54" font-size="13" fill="#8fe3ee" stroke="none" opacity="1" text-anchor="middle" transform="rotate(235.4 210 150)">R</text><text x="210" y="54" font-size="13" fill="#8fe3ee" stroke="none" opacity="1" text-anchor="middle" transform="rotate(249.2 210 150)">S</text><text x="210" y="54" font-size="13" fill="#8fe3ee" stroke="none" opacity="1" text-anchor="middle" transform="rotate(263.1 210 150)">T</text><text x="210" y="54" font-size="13" fill="#8fe3ee" stroke="none" opacity="1" text-anchor="middle" transform="rotate(276.9 210 150)">U</text><text x="210" y="54" font-size="13" fill="#8fe3ee" stroke="none" opacity="1" text-anchor="middle" transform="rotate(290.8 210 150)">V</text><text x="210" y="54" font-size="13" fill="#8fe3ee" stroke="none" opacity="1" text-anchor="middle" transform="rotate(304.6 210 150)">W</text><text x="210" y="54" font-size="13" fill="#8fe3ee" stroke="none" opacity="1" text-anchor="middle" transform="rotate(318.5 210 150)">X</text><text x="210" y="54" font-size="13" fill="#8fe3ee" stroke="none" opacity="1" text-anchor="middle" transform="rotate(332.3 210 150)">Y</text><text x="210" y="54" font-size="13" fill="#8fe3ee" stroke="none" opacity="1" text-anchor="middle" transform="rotate(346.2 210 150)">Z</text><circle cx="450" cy="150" r="120"/><circle cx="450" cy="150" r="78" opacity=".6"/><text x="450" y="54" font-size="13" fill="#8fe3ee" stroke="none" opacity="1" text-anchor="middle" transform="rotate(0.0 450 150)">A</text><text x="450" y="54" font-size="13" fill="#8fe3ee" stroke="none" opacity="1" text-anchor="middle" transform="rotate(13.8 450 150)">B</text><text x="450" y="54" font-size="13" fill="#8fe3ee" stroke="none" opacity="1" text-anchor="middle" transform="rotate(27.7 450 150)">C</text><text x="450" y="54" font-size="13" fill="#8fe3ee" stroke="none" opacity="1" text-anchor="middle" transform="rotate(41.5 450 150)">D</text><text x="450" y="54" font-size="13" fill="#8fe3ee" stroke="none" opacity="1" text-anchor="middle" transform="rotate(55.4 450 150)">E</text><text x="450" y="54" font-size="13" fill="#8fe3ee" stroke="none" opacity="1" text-anchor="middle" transform="rotate(69.2 450 150)">F</text><text x="450" y="54" font-size="13" fill="#8fe3ee" stroke="none" opacity="1" text-anchor="middle" transform="rotate(83.1 450 150)">G</text><text x="450" y="54" font-size="13" fill="#8fe3ee" stroke="none" opacity="1" text-anchor="middle" transform="rotate(96.9 450 150)">H</text><text x="450" y="54" font-size="13" fill="#8fe3ee" stroke="none" opacity="1" text-anchor="middle" transform="rotate(110.8 450 150)">I</text><text x="450" y="54" font-size="13" fill="#8fe3ee" stroke="none" opacity="1" text-anchor="middle" transform="rotate(124.6 450 150)">J</text><text x="450" y="54" font-size="13" fill="#8fe3ee" stroke="none" opacity="1" text-anchor="middle" transform="rotate(138.5 450 150)">K</text><text x="450" y="54" font-size="13" fill="#8fe3ee" stroke="none" opacity="1" text-anchor="middle" transform="rotate(152.3 450 150)">L</text><text x="450" y="54" font-size="13" fill="#8fe3ee" stroke="none" opacity="1" text-anchor="middle" transform="rotate(166.2 450 150)">M</text><text x="450" y="54" font-size="13" fill="#8fe3ee" stroke="none" opacity="1" text-anchor="middle" transform="rotate(180.0 450 150)">N</text><text x="450" y="54" font-size="13" fill="#8fe3ee" stroke="none" opacity="1" text-anchor="middle" transform="rotate(193.8 450 150)">O</text><text x="450" y="54" font-size="13" fill="#8fe3ee" stroke="none" opacity="1" text-anchor="middle" transform="rotate(207.7 450 150)">P</text><text x="450" y="54" font-size="13" fill="#8fe3ee" stroke="none" opacity="1" text-anchor="middle" transform="rotate(221.5 450 150)">Q</text><text x="450" y="54" font-size="13" fill="#8fe3ee" stroke="none" opacity="1" text-anchor="middle" transform="rotate(235.4 450 150)">R</text><text x="450" y="54" font-size="13" fill="#8fe3ee" stroke="none" opacity="1" text-anchor="middle" transform="rotate(249.2 450 150)">S</text><text x="450" y="54" font-size="13" fill="#8fe3ee" stroke="none" opacity="1" text-anchor="middle" transform="rotate(263.1 450 150)">T</text><text x="450" y="54" font-size="13" fill="#8fe3ee" stroke="none" opacity="1" text-anchor="middle" transform="rotate(276.9 450 150)">U</text><text x="450" y="54" font-size="13" fill="#8fe3ee" stroke="none" opacity="1" text-anchor="middle" transform="rotate(290.8 450 150)">V</text><text x="450" y="54" font-size="13" fill="#8fe3ee" stroke="none" opacity="1" text-anchor="middle" transform="rotate(304.6 450 150)">W</text><text x="450" y="54" font-size="13" fill="#8fe3ee" stroke="none" opacity="1" text-anchor="middle" transform="rotate(318.5 450 150)">X</text><text x="450" y="54" font-size="13" fill="#8fe3ee" stroke="none" opacity="1" text-anchor="middle" transform="rotate(332.3 450 150)">Y</text><text x="450" y="54" font-size="13" fill="#8fe3ee" stroke="none" opacity="1" text-anchor="middle" transform="rotate(346.2 450 150)">Z</text><circle cx="690" cy="150" r="120"/><circle cx="690" cy="150" r="78" opacity=".6"/><text x="690" y="54" font-size="13" fill="#8fe3ee" stroke="none" opacity="1" text-anchor="middle" transform="rotate(0.0 690 150)">A</text><text x="690" y="54" font-size="13" fill="#8fe3ee" stroke="none" opacity="1" text-anchor="middle" transform="rotate(13.8 690 150)">B</text><text x="690" y="54" font-size="13" fill="#8fe3ee" stroke="none" opacity="1" text-anchor="middle" transform="rotate(27.7 690 150)">C</text><text x="690" y="54" font-size="13" fill="#8fe3ee" stroke="none" opacity="1" text-anchor="middle" transform="rotate(41.5 690 150)">D</text><text x="690" y="54" font-size="13" fill="#8fe3ee" stroke="none" opacity="1" text-anchor="middle" transform="rotate(55.4 690 150)">E</text><text x="690" y="54" font-size="13" fill="#8fe3ee" stroke="none" opacity="1" text-anchor="middle" transform="rotate(69.2 690 150)">F</text><text x="690" y="54" font-size="13" fill="#8fe3ee" stroke="none" opacity="1" text-anchor="middle" transform="rotate(83.1 690 150)">G</text><text x="690" y="54" font-size="13" fill="#8fe3ee" stroke="none" opacity="1" text-anchor="middle" transform="rotate(96.9 690 150)">H</text><text x="690" y="54" font-size="13" fill="#8fe3ee" stroke="none" opacity="1" text-anchor="middle" transform="rotate(110.8 690 150)">I</text><text x="690" y="54" font-size="13" fill="#8fe3ee" stroke="none" opacity="1" text-anchor="middle" transform="rotate(124.6 690 150)">J</text><text x="690" y="54" font-size="13" fill="#8fe3ee" stroke="none" opacity="1" text-anchor="middle" transform="rotate(138.5 690 150)">K</text><text x="690" y="54" font-size="13" fill="#8fe3ee" stroke="none" opacity="1" text-anchor="middle" transform="rotate(152.3 690 150)">L</text><text x="690" y="54" font-size="13" fill="#8fe3ee" stroke="none" opacity="1" text-anchor="middle" transform="rotate(166.2 690 150)">M</text><text x="690" y="54" font-size="13" fill="#8fe3ee" stroke="none" opacity="1" text-anchor="middle" transform="rotate(180.0 690 150)">N</text><text x="690" y="54" font-size="13" fill="#8fe3ee" stroke="none" opacity="1" text-anchor="middle" transform="rotate(193.8 690 150)">O</text><text x="690" y="54" font-size="13" fill="#8fe3ee" stroke="none" opacity="1" text-anchor="middle" transform="rotate(207.7 690 150)">P</text><text x="690" y="54" font-size="13" fill="#8fe3ee" stroke="none" opacity="1" text-anchor="middle" transform="rotate(221.5 690 150)">Q</text><text x="690" y="54" font-size="13" fill="#8fe3ee" stroke="none" opacity="1" text-anchor="middle" transform="rotate(235.4 690 150)">R</text><text x="690" y="54" font-size="13" fill="#8fe3ee" stroke="none" opacity="1" text-anchor="middle" transform="rotate(249.2 690 150)">S</text><text x="690" y="54" font-size="13" fill="#8fe3ee" stroke="none" opacity="1" text-anchor="middle" transform="rotate(263.1 690 150)">T</text><text x="690" y="54" font-size="13" fill="#8fe3ee" stroke="none" opacity="1" text-anchor="middle" transform="rotate(276.9 690 150)">U</text><text x="690" y="54" font-size="13" fill="#8fe3ee" stroke="none" opacity="1" text-anchor="middle" transform="rotate(290.8 690 150)">V</text><text x="690" y="54" font-size="13" fill="#8fe3ee" stroke="none" opacity="1" text-anchor="middle" transform="rotate(304.6 690 150)">W</text><text x="690" y="54" font-size="13" fill="#8fe3ee" stroke="none" opacity="1" text-anchor="middle" transform="rotate(318.5 690 150)">X</text><text x="690" y="54" font-size="13" fill="#8fe3ee" stroke="none" opacity="1" text-anchor="middle" transform="rotate(332.3 690 150)">Y</text><text x="690" y="54" font-size="13" fill="#8fe3ee" stroke="none" opacity="1" text-anchor="middle" transform="rotate(346.2 690 150)">Z</text><path d="M444 14h12l-6 14z" fill="#f5c26b" stroke="none"/></g></svg>