<svg xmlns="http://www.w3.org/2000/svg" viewBox="0 0 900 300"><defs><linearGradient id="g" x1="0" y1="0" x2="1" y2="1"><stop offset="0" stop-color="#2a0f2e"/><stop offset="1" stop-color="#7a2c63"/></linearGradient></defs><rect width="900" height="300" fill="url(#g)"/><g fill="none" stroke="#f6c1e3" stroke-width="2" font-family="Georgia,serif"><g transform="rotate(-8 150 150)"><rect x="85" y="40" width="130" height="220" rx="8" fill="#2a0f2e"/><circle cx="110" cy="70" r="6" fill="#f6c1e3"/><circle cx="136" cy="70" r="6" fill="#f6c1e3"/><circle cx="162" cy="70" r="6" fill="none"/><circle cx="188" cy="70" r="6" fill="#f6c1e3"/><circle cx="110" cy="96" r="6" fill="none"/><circle cx="136" cy="96" r="6" fill="#f6c1e3"/><circle cx="162" cy="96" r="6" fill="none"/><circle cx="188" cy="96" r="6" fill="none"/><circle cx="110" cy="122" r="6" fill="none"/><circle cx="136" cy="122" r="6" fill="none"/><circle cx="162" cy="122" r="6" fill="#f6c1e3"/><circle cx="188" cy="122" r="6" fill="#f6c1e3"/><circle cx="110" cy="148" r="6" fill="#f6c1e3"/><circle cx="136" cy="148" r="6" fill="#f6c1e3"/><circle cx="162" cy="148" r="6" fill="none"/><circle cx="188" cy="148" r="6" fill="none"/><circle cx="110" cy="174" r="6" fill="#f6c1e3"/><circle cx="136" cy="174" r="6" fill="#f6c1e3"/><circle cx="162" cy="174" r="6" fill="none"/><circle cx="188" cy="174" r="6" fill="none"/><circle cx="110" cy="200" r="6" fill="#f6c1e3"/><circle cx="136" cy="200" r="6" fill="none"/><circle cx="162" cy="200" r="6" fill="#f6c1e3"/><circle cx="188" cy="200" r="6" fill="none"/><circle cx="110" cy="226" r="6" fill="none"/><circle cx="136" cy="226" r="6" fill="none"/><circle cx="162" cy="226" r="6" fill="none"/><circle cx="188" cy="226" r="6" fill="#f6c1e3"/></g><g transform="rotate(-4 300 150)"><rect x="235" y="40" width="130" height="220" rx="8" fill="#2a0f2e"/><circle cx="260" cy="70" r="6" fill="none"/><circle cx="286" cy="70" r="6" fill="#f6c1e3"/><circle cx="312" cy="70" r="6" fill="none"/><circle cx="338" cy="70" r="6" fill="#f6c1e3"/><circle cx="260" cy="96" r="6" fill="#f6c1e3"/><circle cx="286" cy="96" r="6" fill="none"/><circle cx="312" cy="96" r="6" fill="#f6c1e3"/><circle cx="338" cy="96" r="6" fill="#f6c1e3"/><circle cx="260" cy="122" r="6" fill="none"/><circle cx="286" cy="122" r="6" fill="#f6c1e3"/><circle cx="312" cy="122" r="6" fill="#f6c1e3"/><circle cx="338" cy="122" r="6" fill="none"/><circle cx="260" cy="148" r="6" fill="#f6c1e3"/><circle cx="286" cy="148" r="6" fill="none"/><circle cx="312" cy="148" r="6" fill="#f6c1e3"/><circle cx="338" cy="148" r="6" fill="#f6c1e3"/><circle cx="260" cy="174" r="6" fill="none"/><circle cx="286" cy="174" r="6" fill="none"/><circle cx="312" cy="174" r="6" fill="none"/><circle cx="338" cy="174" r="6" fill="#f6c1e3"/><circle cx="260" cy="200" r="6" fill="none"/><circle cx="286" cy="200" r="6" fill="none"/><circle cx="312" cy="200" r="6" fill="none"/><circle cx="338" cy="200" r="6" fill="none"/><circle cx="260" cy="226" r="6" fill="#f6c1e3"/><circle cx="286" cy="226" r="6" fill="none"/><circle cx="312" cy="226" r="6" fill="#f6c1e3"/><circle cx="338" cy="226" r="6" fill="none"/></g><g transform="rotate(0 450 150)"><rect x="385" y="40" width="130" height="220" rx="8" fill="#2a0f2e"/><circle cx="410" cy="70" r="6" fill="#f6c1e3"/><circle cx="436" cy="70" r="6" fill="#f6c1e3"/><circle cx="462" cy="70" r="6" fill="none"/><circle cx="488" cy="70" r="6" fill="none"/><circle cx="410" cy="96" r="6" fill="#f6c1e3"/><circle cx="436" cy="96" r="6" fill="#f6c1e3"/><circle cx="462" cy="96" r="6" fill="none"/><circle cx="488" cy="96" r="6" fill="none"/><circle cx="410" cy="122" r="6" fill="none"/><circle cx="436" cy="122" r="6" fill="none"/><circle cx="462" cy="122" r="6" fill="#f6c1e3"/><circle cx="488" cy="122" r="6" fill="none"/><circle cx="410" cy="148" r="6" fill="none"/><circle cx="436" cy="148" r="6" fill="none"/><circle cx="462" cy="148" r="6" fill="none"/><circle cx="488" cy="148" r="6" fill="#f6c1e3"/><circle cx="410" cy="174" r="6" fill="none"/><circle cx="436" cy="174" r="6" fill="#f6c1e3"/><circle cx="462" cy="174" r="6" fill="#f6c1e3"/><circle cx="488" cy="174" r="6" fill="none"/><circle cx="410" cy="200" r="6" fill="#f6c1e3"/><circle cx="436" cy="200" r="6" fill="none"/><circle cx="462" cy="200" r="6" fill="none"/><circle cx="488" cy="200" r="6" fill="none"/><circle cx="410" cy="226" r="6" fill="none"/><circle cx="436" cy="226" r="6" fill="#f6c1e3"/><circle cx="462" cy="226" r="6" fill="none"/><circle cx="488" cy="226" r="6" fill="#f6c1e3"/></g><g transform="rotate(4 600 150)"><rect x="535" y="40" width="130" height="220" rx="8" fill="#2a0f2e"/><circle cx="560" cy="70" r="6" fill="#f6c1e3"/><circle cx="586" cy="70" r="6" fill="none"/><circle cx="612" cy="70" r="6" fill="#f6c1e3"/><circle cx="638" cy="70" r="6" fill="none"/><circle cx="560" cy="96" r="6" fill="none"/><circle cx="586" cy="96" r="6" fill="none"/><circle cx="612" cy="96" r="6" fill="none"/><circle cx="638" cy="96" r="6" fill="#f6c1e3"/><circle cx="560" cy="122" r="6" fill="none"/><circle cx="586" cy="122" r="6" fill="#f6c1e3"/><circle cx="612" cy="122" r="6" fill="#f6c1e3"/><circle cx="638" cy="122" r="6" fill="none"/><circle cx="560" cy="148" r="6" fill="#f6c1e3"/><circle cx="586" cy="148" r="6" fill="#f6c1e3"/><circle cx="612" cy="148" r="6" fill="none"/><circle cx="638" cy="148" r="6" fill="#f6c1e3"/><circle cx="560" cy="174" r="6" fill="none"/><circle cx="586" cy="174" r="6" fill="none"/><circle cx="612" cy="174" r="6" fill="#f6c1e3"/><circle cx="638" cy="174" r="6" fill="#f6c1e3"/><circle cx="560" cy="200" r="6" fill="none"/><circle cx="586" cy="200" r="6" fill="#f6c1e3"/><circle cx="612" cy="200" r="6" fill="none"/><circle cx="638" cy="200" r="6" fill="none"/><circle cx="560" cy="226" r="6" fill="#f6c1e3"/><circle cx="586" cy="226" r="6" fill="#f6c1e3"/><circle cx="612" cy="226" r="6" fill="none"/><circle cx="638" cy="226" r="6" fill="#f6c1e3"/></g><g transform="rotate(8 750 150)"><rect x="685" y="40" width="130" height="220" rx="8" fill="#2a0f2e"/><circle cx="710" cy="70" r="6" fill="#f6c1e3"/><circle cx="736" cy="70" r="6" fill="none"/><circle cx="762" cy="70" r="6" fill="none"/><circle cx="788" cy="70" r="6" fill="#f6c1e3"/><circle cx="710" cy="96" r="6" fill="#f6c1e3"/><circle cx="736" cy="96" r="6" fill="#f6c1e3"/><circle cx="762" cy="96" r="6" fill="#f6c1e3"/><circle cx="788" cy="96" r="6" fill="none"/><circle cx="710" cy="122" r="6" fill="none"/><circle cx="736" cy="122" r="6" fill="none"/><circle cx="762" cy="122" r="6" fill="#f6c1e3"/><circle cx="788" cy="122" r="6" fill="#f6c1e3"/><circle cx="710" cy="148" r="6" fill="#f6c1e3"/><circle cx="736" cy="148" r="6" fill="#f6c1e3"/><circle cx="762" cy="148" r="6" fill="none"/><circle cx="788" cy="148" r="6" fill="#f6c1e3"/><circle cx="710" cy="174" r="6" fill="none"/><circle cx="736" cy="174" r="6" fill="#f6c1e3"/><circle cx="762" cy="174" r="6" fill="none"/><circle cx="788" cy="174" r="6" fill="#f6c1e3"/><circle cx="710" cy="200" r="6" fill="none"/><circle cx="736" cy="200" r="6" fill="#f6c1e3"/><circle cx="762" cy="200" r="6" fill="none"/><circle cx="788" cy="200" r="6" fill="#f6c1e3"/><circle cx="710" cy="226" r="6" fill="none"/><circle cx="736" cy="226" r="6" fill="none"/><circle cx="762" cy="226" r="6" fill="none"/><circle cx="788" cy="226" r="6" fill="none"/></g></g></svg>