<svg xmlns="http://www.w3.org/2000/svg" viewBox="0 0 900 300"><defs><linearGradient id="g" x1="0" y1="0" x2="1" y2="1"><stop offset="0" stop-color="#2a0f2e"/><stop offset="1" stop-color="#7a2c63"/></linearGradient></defs><rect width="900" height="300" fill="url(#g)"/><g fill="none" stroke="#f6c1e3" stroke-width="2" font-family="Georgia,serif"><path d="M98 20V280" opacity=".4"/><rect x="70" y="30" width="56" height="42" rx="7" fill="#2a0f2e" stroke="#f6c1e3"/><text x="98" y="60" font-size="24" fill="#f6c1e3" stroke="none" opacity="1" text-anchor="middle">6</text><rect x="70" y="80" width="56" height="42" rx="7" fill="#2a0f2e" stroke="#f6c1e3"/><text x="98" y="110" font-size="24" fill="#f6c1e3" stroke="none" opacity="1" text-anchor="middle">4</text><rect x="70" y="130" width="56" height="42" rx="7" fill="#2a0f2e" stroke="#f5c26b"/><text x="98" y="160" font-size="24" fill="#f6c1e3" stroke="none" opacity="1" text-anchor="middle">2</text><rect x="70" y="180" width="56" height="42" rx="7" fill="#2a0f2e" stroke="#f6c1e3"/><text x="98" y="210" font-size="24" fill="#f6c1e3" stroke="none" opacity="1" text-anchor="middle">6</text><rect x="70" y="230" width="56" height="42" rx="7" fill="#2a0f2e" stroke="#f6c1e3"/><text x="98" y="260" font-size="24" fill="#f6c1e3" stroke="none" opacity="1" text-anchor="middle">5</text><path d="M186 20V280" opacity=".4"/><rect x="158" y="30" width="56" height="42" rx="7" fill="#2a0f2e" stroke="#f6c1e3"/><text x="186" y="60" font-size="24" fill="#f6c1e3" stroke="none" opacity="1" text-anchor="middle">6</text><rect x="158" y="80" width="56" height="42" rx="7" fill="#2a0f2e" stroke="#f6c1e3"/><text x="186" y="110" font-size="24" fill="#f6c1e3" stroke="none" opacity="1" text-anchor="middle">5</text><rect x="158" y="130" width="56" height="42" rx="7" fill="#2a0f2e" stroke="#f5c26b"/><text x="186" y="160" font-size="24" fill="#f6c1e3" stroke="none" opacity="1" text-anchor="middle">1</text><rect x="158" y="180" width="56" height="42" rx="7" fill="#2a0f2e" stroke="#f6c1e3"/><text x="186" y="210" font-size="24" fill="#f6c1e3" stroke="none" opacity="1" text-anchor="middle">5</text><rect x="158" y="230" width="56" height="42" rx="7" fill="#2a0f2e" stroke="#f6c1e3"/><text x="186" y="260" font-size="24" fill="#f6c1e3" stroke="none" opacity="1" text-anchor="middle">0</text><path d="M274 20V280" opacity=".4"/><rect x="246" y="30" width="56" height="42" rx="7" fill="#2a0f2e" stroke="#f6c1e3"/><text x="274" y="60" font-size="24" fill="#f6c1e3" stroke="none" opacity="1" text-anchor="middle">5</text><rect x="246" y="80" width="56" height="42" rx="7" fill="#2a0f2e" stroke="#f6c1e3"/><text x="274" y="110" font-size="24" fill="#f6c1e3" stroke="none" opacity="1" text-anchor="middle">5</text><rect x="246" y="130" width="56" height="42" rx="7" fill="#2a0f2e" stroke="#f5c26b"/><text x="274" y="160" font-size="24" fill="#f6c1e3" stroke="none" opacity="1" text-anchor="middle">6</text><rect x="246" y="180" width="56" height="42" rx="7" fill="#2a0f2e" stroke="#f6c1e3"/><text x="274" y="210" font-size="24" fill="#f6c1e3" stroke="none" opacity="1" text-anchor="middle">1</text><rect x="246" y="230" width="56" height="42" rx="7" fill="#2a0f2e" stroke="#f6c1e3"/><text x="274" y="260" font-size="24" fill="#f6c1e3" stroke="none" opacity="1" text-anchor="middle">3</text><path d="M362 20V280" opacity=".4"/><rect x="334" y="30" width="56" height="42" rx="7" fill="#2a0f2e" stroke="#f6c1e3"/><text x="362" y="60" font-size="24" fill="#f6c1e3" stroke="none" opacity="1" text-anchor="middle">0</text><rect x="334" y="80" width="56" height="42" rx="7" fill="#2a0f2e" stroke="#f6c1e3"/><text x="362" y="110" font-size="24" fill="#f6c1e3" stroke="none" opacity="1" text-anchor="middle">4</text><rect x="334" y="130" width="56" height="42" rx="7" fill="#2a0f2e" stroke="#f5c26b"/><text x="362" y="160" font-size="24" fill="#f6c1e3" stroke="none" opacity="1" text-anchor="middle">4</text><rect x="334" y="180" width="56" height="42" rx="7" fill="#2a0f2e" stroke="#f6c1e3"/><text x="362" y="210" font-size="24" fill="#f6c1e3" stroke="none" opacity="1" text-anchor="middle">5</text><rect x="334" y="230" width="56" height="42" rx="7" fill="#2a0f2e" stroke="#f6c1e3"/><text x="362" y="260" font-size="24" fill="#f6c1e3" stroke="none" opacity="1" text-anchor="middle">1</text><path d="M450 20V280" opacity=".4"/><rect x="422" y="30" width="56" height="42" rx="7" fill="#2a0f2e" stroke="#f6c1e3"/><text x="450" y="60" font-size="24" fill="#f6c1e3" stroke="none" opacity="1" text-anchor="middle">6</text><rect x="422" y="80" width="56" height="42" rx="7" fill="#2a0f2e" stroke="#f6c1e3"/><text x="450" y="110" font-size="24" fill="#f6c1e3" stroke="none" opacity="1" text-anchor="middle">6</text><rect x="422" y="130" width="56" height="42" rx="7" fill="#2a0f2e" stroke="#f5c26b"/><text x="450" y="160" font-size="24" fill="#f6c1e3" stroke="none" opacity="1" text-anchor="middle">9</text><rect x="422" y="180" width="56" height="42" rx="7" fill="#2a0f2e" stroke="#f6c1e3"/><text x="450" y="210" font-size="24" fill="#f6c1e3" stroke="none" opacity="1" text-anchor="middle">1</text><rect x="422" y="230" width="56" height="42" rx="7" fill="#2a0f2e" stroke="#f6c1e3"/><text x="450" y="260" font-size="24" fill="#f6c1e3" stroke="none" opacity="1" text-anchor="middle">5</text><path d="M538 20V280" opacity=".4"/><rect x="510" y="30" width="56" height="42" rx="7" fill="#2a0f2e" stroke="#f6c1e3"/><text x="538" y="60" font-size="24" fill="#f6c1e3" stroke="none" opacity="1" text-anchor="middle">6</text><rect x="510" y="80" width="56" height="42" rx="7" fill="#2a0f2e" stroke="#f6c1e3"/><text x="538" y="110" font-size="24" fill="#f6c1e3" stroke="none" opacity="1" text-anchor="middle">4</text><rect x="510" y="130" width="56" height="42" rx="7" fill="#2a0f2e" stroke="#f5c26b"/><text x="538" y="160" font-size="24" fill="#f6c1e3" stroke="none" opacity="1" text-anchor="middle">0</text><rect x="510" y="180" width="56" height="42" rx="7" fill="#2a0f2e" stroke="#f6c1e3"/><text x="538" y="210" font-size="24" fill="#f6c1e3" stroke="none" opacity="1" text-anchor="middle">4</text><rect x="510" y="230" width="56" height="42" rx="7" fill="#2a0f2e" stroke="#f6c1e3"/><text x="538" y="260" font-size="24" fill="#f6c1e3" stroke="none" opacity="1" text-anchor="middle">1</text><path d="M626 20V280" opacity=".4"/><rect x="598" y="30" width="56" height="42" rx="7" fill="#2a0f2e" stroke="#f6c1e3"/><text x="626" y="60" font-size="24" fill="#f6c1e3" stroke="none" opacity="1" text-anchor="middle">0</text><rect x="598" y="80" width="56" height="42" rx="7" fill="#2a0f2e" stroke="#f6c1e3"/><text x="626" y="110" font-size="24" fill="#f6c1e3" stroke="none" opacity="1" text-anchor="middle">4</text><rect x="598" y="130" width="56" height="42" rx="7" fill="#2a0f2e" stroke="#f5c26b"/><text x="626" y="160" font-size="24" fill="#f6c1e3" stroke="none" opacity="1" text-anchor="middle">2</text><rect x="598" y="180" width="56" height="42" rx="7" fill="#2a0f2e" stroke="#f6c1e3"/><text x="626" y="210" font-size="24" fill="#f6c1e3" stroke="none" opacity="1" text-anchor="middle">3</text><rect x="598" y="230" width="56" height="42" rx="7" fill="#2a0f2e" stroke="#f6c1e3"/><text x="626" y="260" font-size="24" fill="#f6c1e3" stroke="none" opacity="1" text-anchor="middle">4</text><path d="M714 20V280" opacity=".4"/><rect x="686" y="30" width="56" height="42" rx="7" fill="#2a0f2e" stroke="#f6c1e3"/><text x="714" y="60" font-size="24" fill="#f6c1e3" stroke="none" opacity="1" text-anchor="middle">6</text><rect x="686" y="80" width="56" height="42" rx="7" fill="#2a0f2e" stroke="#f6c1e3"/><text x="714" y="110" font-size="24" fill="#f6c1e3" stroke="none" opacity="1" text-anchor="middle">8</text><rect x="686" y="130" width="56" height="42" rx="7" fill="#2a0f2e" stroke="#f5c26b"/><text x="714" y="160" font-size="24" fill="#f6c1e3" stroke="none" opacity="1" text-anchor="middle">5</text><rect x="686" y="180" width="56" height="42" rx="7" fill="#2a0f2e" stroke="#f6c1e3"/><text x="714" y="210" font-size="24" fill="#f6c1e3" stroke="none" opacity="1" text-anchor="middle">3</text><rect x="686" y="230" width="56" height="42" rx="7" fill="#2a0f2e" stroke="#f6c1e3"/><text x="714" y="260" font-size="24" fill="#f6c1e3" stroke="none" opacity="1" text-anchor="middle">5</text><path d="M802 20V280" opacity=".4"/><rect x="774" y="30" width="56" height="42" rx="7" fill="#2a0f2e" stroke="#f6c1e3"/><text x="802" y="60" font-size="24" fill="#f6c1e3" stroke="none" opacity="1" text-anchor="middle">6</text><rect x="774" y="80" width="56" height="42" rx="7" fill="#2a0f2e" stroke="#f6c1e3"/><text x="802" y="110" font-size="24" fill="#f6c1e3" stroke="none" opacity="1" text-anchor="middle">0</text><rect x="774" y="130" width="56" height="42" rx="7" fill="#2a0f2e" stroke="#f5c26b"/><text x="802" y="160" font-size="24" fill="#f6c1e3" stroke="none" opacity="1" text-anchor="middle">6</text><rect x="774" y="180" width="56" height="42" rx="7" fill="#2a0f2e" stroke="#f6c1e3"/><text x="802" y="210" font-size="24" fill="#f6c1e3" stroke="none" opacity="1" text-anchor="middle">8</text><rect x="774" y="230" width="56" height="42" rx="7" fill="#2a0f2e" stroke="#f6c1e3"/><text x="802" y="260" font-size="24" fill="#f6c1e3" stroke="none" opacity="1" text-anchor="middle">8</text></g></svg>